<svg xmlns="http://www.w3.org/2000/svg" viewBox="0 0 512 512" id="cat"><path fill="#4a4f60" d="M303.325 504.5h-29.532a15.693 15.693 0 1 1 0-31.386h29.532a59.265 59.265 0 0 0 59.247-59.148v-159.77a50.032 50.032 0 0 1 100.063 0v12.782a15.72 15.72 0 0 1-31.439 0v-12.782a18.593 18.593 0 0 0-37.185 0v159.77a90.713 90.713 0 0 1-90.686 90.534Z"></path><path fill="#3b3f4d" d="M397.604 235.635a18.598 18.598 0 0 0-18.593 18.561v159.77a90.713 90.713 0 0 1-90.686 90.534h15a90.713 90.713 0 0 0 90.686-90.534v-159.77a18.577 18.577 0 0 1 11.093-16.97 18.493 18.493 0 0 0-7.5-1.59zm15-31.385a50.287 50.287 0 0 0-7.5.562 50.05 50.05 0 0 1 42.531 49.384v12.782a15.686 15.686 0 0 1-8.22 13.795 15.728 15.728 0 0 0 23.22-13.795v-12.782a50.046 50.046 0 0 0-50.031-49.946z"></path><path fill="#4a4f60" d="M190.838 52.848q3.63-.091 7.484 0a149.414 149.414 0 0 1 18.781 1.664 7.458 7.458 0 0 0 6.915-2.655A203.907 203.907 0 0 1 274.59 7.5a204.453 204.453 0 0 1 3.085 78.23 7.821 7.821 0 0 0 .546 4.266 120.137 120.137 0 0 1 9.343 38.162 121.967 121.967 0 0 1-9.23 55.94 23.202 23.202 0 0 0 .748 19.443c16.794 33.05 35.716 78.29 44.672 129.121 4.942 28.05 5.236 48.646 0 70.213l-.165.672a84.424 84.424 0 0 1-62.11 61.59 310 310 0 0 1-145.956.019 84.465 84.465 0 0 1-62.176-61.61l-.165-.67c-5.235-21.568-4.941-42.165 0-70.214 8.956-50.83 27.878-96.07 44.672-129.121a23.202 23.202 0 0 0 .749-19.443 121.968 121.968 0 0 1-9.23-55.94 120.135 120.135 0 0 1 9.342-38.162 7.821 7.821 0 0 0 .546-4.267A204.447 204.447 0 0 1 102.346 7.5a204.338 204.338 0 0 1 32.776 25.222 203.789 203.789 0 0 1 17.823 19.167 7.45 7.45 0 0 0 6.86 2.663 172.379 172.379 0 0 1 18.81-1.704 172.22 172.22 0 0 1 12.223 0Z"></path><path fill="#3b3f4d" d="M187.103 54.512a7.45 7.45 0 0 0 5.948-1.692c-.74.007-1.486.01-2.213.028a172.252 172.252 0 0 0-12.224 0q-2.471.088-4.857.243c4.692.29 9.154.781 13.346 1.42zm-81.981-21.79a203.789 203.789 0 0 1 17.823 19.167 7.45 7.45 0 0 0 6.86 2.663 172.379 172.379 0 0 1 18.81-1.704c1.76-.063 3.478-.09 5.17-.1a7.462 7.462 0 0 1-.84-.859 203.789 203.789 0 0 0-17.823-19.167A204.338 204.338 0 0 0 102.346 7.5a205.371 205.371 0 0 0-3.606 19.44q3.173 2.755 6.382 5.782zm218.632 299.94c-8.956-50.83-27.878-96.07-44.672-129.121a23.202 23.202 0 0 1-.749-19.443 121.967 121.967 0 0 0 9.23-55.94 120.137 120.137 0 0 0-9.342-38.162 7.821 7.821 0 0 1-.546-4.267A204.453 204.453 0 0 0 274.59 7.5a204.563 204.563 0 0 0-26.393 19.44 204.168 204.168 0 0 1-.522 58.79 7.821 7.821 0 0 0 .546 4.266 120.137 120.137 0 0 1 9.343 38.162 121.967 121.967 0 0 1-9.23 55.94 23.202 23.202 0 0 0 .748 19.443c16.794 33.05 35.716 78.29 44.672 129.121 4.942 28.05 5.236 48.646 0 70.213l-.165.671a84.424 84.424 0 0 1-62.11 61.591 310.424 310.424 0 0 1-58.012 8.356c5.46.265 10.483.366 15.001.366a310.17 310.17 0 0 0 73.012-8.722 84.424 84.424 0 0 0 62.11-61.59l.164-.672c5.236-21.567 4.942-42.164 0-70.213z"></path><path fill="#3b3f4d" d="M173.47 361.24v127.57a15.726 15.726 0 0 1-15.72 15.69H74.44v-2.41a46.6 46.6 0 0 1 46.63-46.56v-74.29a20 20 0 0 1 20-20Z"></path><path fill="#4a4f60" d="M188.47 361.24v127.57a15.726 15.726 0 0 1-15.72 15.69H89.44v-2.41a46.6 46.6 0 0 1 46.63-46.56v-94.29Z"></path><path fill="#3b3f4d" d="M302.5 502.09v2.41h-83.31a15.726 15.726 0 0 1-15.72-15.69V361.24h32.4a20 20 0 0 1 20 20v74.29a46.6 46.6 0 0 1 46.63 46.56Z"></path><path fill="#4a4f60" d="M287.5 502.09v2.41h-83.31a15.726 15.726 0 0 1-15.72-15.69V361.24h52.4v94.29a46.6 46.6 0 0 1 46.63 46.56Z"></path><path fill="#3b3f4d" d="M208.379 203.897a27.353 27.353 0 0 1-19.911-8.58 27.406 27.406 0 0 1-47.322-18.797 7.5 7.5 0 1 1 15 0 12.411 12.411 0 0 0 24.822 0 7.5 7.5 0 0 1 15 0 12.411 12.411 0 0 0 24.822 0 7.5 7.5 0 0 1 15 0 27.426 27.426 0 0 1-27.411 27.377Z"></path><ellipse cx="148.798" cy="115.241" fill="#f66" rx="15.706" ry="22.213" transform="rotate(-45.144 148.798 115.241)"></ellipse><path fill="#ff4e4e" d="M159.913 104.145a23.558 23.558 0 0 0-21.123-6.454 23.514 23.514 0 0 1 16.817 33.244 23.52 23.52 0 0 1-5.712 1.856 23.675 23.675 0 0 0 14.623-1.856 23.516 23.516 0 0 0-4.605-26.79Z"></path><ellipse cx="228.138" cy="115.241" fill="#f66" rx="22.213" ry="15.706" transform="rotate(-44.856 228.138 115.241)"></ellipse><path fill="#ff4e4e" d="M243.858 99.547a23.678 23.678 0 0 0-14.267-1.928 23.527 23.527 0 0 1 6.113 1.928 23.526 23.526 0 0 1-17.173 33.316 23.534 23.534 0 0 0 25.327-33.316Z"></path><path fill="#3b3f4d" d="M196.45 361.24v141.22a15.656 15.656 0 0 1-7.98-13.65 15.656 15.656 0 0 1-7.98 13.65V361.24Z"></path></svg>