<svg xmlns="http://www.w3.org/2000/svg" viewBox="0 0 800 800" id="chameleon"><g><path fill="#5fe048" d="M576.75,378.92l-3,25.29h-48s-10.29-9.43-16.72-3-8.57,26.58,14.57,26.58h67S612,427.36,612,417.5s-14.87-5.57-14.87-5.57l7.16-33Z"></path><path fill="#060e38" d="M590.66,432.79h-67c-15.09,0-20.51-7.65-22.4-12.21-3.41-8.24-.5-18.11,4.29-22.9,7-7,16.73-2.61,22.07,1.53h41.74l2.44-20.86a5,5,0,1,1,9.93,1.15l-3,25.29a5,5,0,0,1-5,4.42h-48a5,5,0,0,1-3.38-1.31c-.06,0-7-6-9.8-3.15-2.1,2.09-3.92,7.68-2.13,12,2.06,5,8.3,6,13.16,6h67c7.36-.18,16.34-2.64,16.34-5.29,0-.13,0-.79-.19-.93-1.18-.89-5.44-.64-8.31.17a5,5,0,0,1-6.26-5.87l7.16-33a5,5,0,0,1,9.77,2.12l-5.64,26h.16a15.09,15.09,0,0,1,9.13,2.59A10.59,10.59,0,0,1,617,417.5c0,14.35-23.51,15.23-26.19,15.29Z"></path><path fill="#5fe048" d="M711.48,506.75c-29.43,83.49-88.36,140-161.66,155.06a217.28,217.28,0,0,1-43.61,4.51,185.19,185.19,0,0,1-47.09-5.88c-48.5-12.78-84.45-59-85.47-110-.5-25.08,8-48,23.87-64.54s38.62-26,64-26.76c17.71-.51,33.87,3.8,46.72,12.46,21.18,14.27,37.49,45,38.78,73,1,20.76-5.9,37.76-19.84,49.16-7.91,6.47-18.42,10.82-31.25,13-23,3.8-53.25-.29-69.24-23.2-13-18.66-12-45.16,2.31-61.65,15-17.28,43.42-20.3,60.74-6.45,8,6.38,12.31,15.2,11.57,23.59A19.78,19.78,0,0,1,493,553.1a16,16,0,0,1-13.27,2.77c-4.79-1.21-8.16-4.38-11.14-7.18-2.09-2-4.05-3.81-6.13-4.62-3.92-1.53-9.29,1-11.26,5.41s-1,10.45,2.51,15c4.1,5.36,10.53,8.08,15.2,9.42,14.12,4.05,29.38,0,37.13-9.85,10.05-12.77,6.4-31.85-2.41-44.08-15.26-21.22-46.54-28.67-69.72-16.62S398.88,545.28,407.47,570c9.17,26.36,32,39.42,49.54,45.74,21.47,7.73,47.56,10,71.59,6.33,40.88-6.31,77.45-33.35,98.63-72.69q1.13-2.07,2.19-4.2c25.17-50.33,28.34-95.21,9.18-129.79a99.46,99.46,0,0,0-34.41-36.13l-9.71,4.28a5,5,0,0,1-2,.42H344.66l-42.15,24.64,0,0a10.59,10.59,0,0,1,4.18,8.92c0,14.35-23.51,15.23-26.19,15.29H213.41c-15.1,0-20.52-7.65-22.41-12.21-3.41-8.24-.49-18.11,4.3-22.9,7-7,16.73-2.61,22.07,1.53H261.9l38.32-28.47A87.7,87.7,0,0,1,281.87,359a4.72,4.72,0,0,1-1.07.21C249,361.62,221,362.83,197,362.83c-56.48,0-91.09-6.67-101.43-19.79a13.63,13.63,0,0,1-3.14-7.58,9.16,9.16,0,0,1,.34-3.36,5,5,0,0,1,4.08-3.42c13-1.78,25-7.43,34.05-12.9a83.16,83.16,0,0,1-27.09-2.47C85.7,308.4,77,298.46,76.61,298a5,5,0,0,1-.63-5.62,421.62,421.62,0,0,1,38.37-58.07c30.64-38.25,57.22-52.52,79-42.42,45.11,20.91,91.82,16.75,92.29,16.71a5,5,0,0,1,5.3,3.74,203.2,203.2,0,0,1,36.15-36.44c27.65-21.65,74.59-46.45,141.13-41.61,67,4.88,134.09,42.35,184,102.82,31.09,37.67,53.39,81.72,64.51,127.41C728.74,413.8,726.91,463,711.48,506.75Z"></path><path d="M629.42,545.14c25.17-50.33,28.34-95.21,9.18-129.79a99.46,99.46,0,0,0-34.41-36.13l-9.71,4.28a5,5,0,0,1-2,.42H344.66l-42.15,24.64,0,0a10.59,10.59,0,0,1,4.18,8.92c0,14.35-23.51,15.23-26.19,15.29H213.41c-15.1,0-20.52-7.65-22.41-12.21-3.41-8.24-.49-18.11,4.3-22.9,7-7,16.73-2.61,22.07,1.53H261.9l38.32-28.47A87.7,87.7,0,0,1,281.87,359a4.72,4.72,0,0,1-1.07.21C249,361.62,221,362.83,197,362.83c-56.48,0-91.09-6.67-101.43-19.79a13.63,13.63,0,0,1-3.14-7.58c9.77-2.17,25.17-5.4,25.17-5.4s91.6,15.36,119.57,2.61,50.14,3.65,64.61-10.81,135.66-98.08,278.67,15.87,46.45,222.09,46.45,222.09l.32-10.48Q628.36,547.27,629.42,545.14Z" opacity=".1"></path><path fill="#266f18" d="M362,159.59c42.13,80.28,12.73,80.89,27.59,125.46s10.28,93.87,10.28,93.87H350.71l4.31-9.5c5.46-11.07-18.43-29.15-34.6-39.36s-9.14-36.43-13.14-61.58-20.45-26.29-20.45-26.29l1.59-20.57s48.1-53.63,73.57-62"></path><path fill="#fff" d="M82.33,303.09a413.11,413.11,0,0,1,32-46.88c30.64-38.25,57.22-52.52,79-42.42,45.11,20.91,91.82,16.75,92.29,16.71a5,5,0,0,1,3.68,1.14,4.91,4.91,0,0,1,1.62,2.59,203.21,203.21,0,0,1,36.15-36.43c27.65-21.65,74.59-46.45,141.13-41.61,67,4.87,134.09,42.35,184,102.82,31.09,37.67,53.39,81.72,64.51,127.4a273.37,273.37,0,0,1,7.56,52.87,267.23,267.23,0,0,0-7.56-74.72c-11.12-45.69-33.42-89.74-64.51-127.41-49.92-60.47-117-97.94-184-102.82-66.54-4.84-113.48,20-141.13,41.61A203.2,203.2,0,0,0,291,212.38a5,5,0,0,0-5.3-3.74c-.47,0-47.18,4.2-92.29-16.71-21.8-10.1-48.38,4.17-79,42.42A421.62,421.62,0,0,0,76,292.42a5,5,0,0,0,.63,5.62A38.11,38.11,0,0,0,82.33,303.09Z" opacity=".5"></path><path fill="#060e38" d="M214.06,322.69c-1.47,0-2.36-.06-2.56-.07a5,5,0,0,1,.67-10h0c.27,0,28.49,1.58,48.62-18.95,15.76-16.06,22.72-41.2,20.71-74.78-13.82.56-53.19.24-92.34-17.9-33.75-15.64-83.72,58.69-102.53,92.75a53,53,0,0,0,20.49,10.08c20.7,5.37,46.36.69,74.22-13.52a5,5,0,1,1,4.54,8.9c-38.44,19.62-65.84,18.49-82.06,14.09C85.7,308.4,77,298.46,76.61,298a5,5,0,0,1-.63-5.62,421.62,421.62,0,0,1,38.37-58.07c30.64-38.25,57.22-52.52,79-42.42,45.11,20.91,91.82,16.75,92.29,16.71a5,5,0,0,1,3.68,1.14,5,5,0,0,1,1.78,3.42c3.26,39.14-4.58,68.61-23.29,87.6C248,321,222.22,322.69,214.06,322.69Z"></path><path fill="#060e38" d="M197,362.83c-56.48,0-91.09-6.67-101.43-19.79-4.28-5.42-3.09-10.07-2.8-10.94a5,5,0,0,1,4.08-3.42c27.28-3.75,50.41-24.66,50.64-24.87a5,5,0,0,1,6.75,7.38c-1,.89-22.59,20.43-50.2,26.37l.24.24c7,6.94,38.27,21.93,175.75,11.42a5,5,0,0,1,.76,10C249,361.62,221,362.83,197,362.83Z"></path><path fill="#060e38" d="M280.42,432.79h-67c-15.1,0-20.52-7.65-22.41-12.21-3.41-8.24-.49-18.11,4.3-22.9,7-7,16.73-2.61,22.07,1.53H261.9l38.32-28.47c-9.94-4.77-26.06-14.73-34.7-32a5,5,0,0,1,8.94-4.48c10.93,21.87,37.07,30.4,37.33,30.48a5,5,0,0,1,1.47,8.78l-46.72,34.72a5,5,0,0,1-3,1h-48a5,5,0,0,1-3.38-1.31s-7-6-9.8-3.15c-2.1,2.09-3.92,7.68-2.13,12,2.07,5,8.3,6,13.17,6h67c7.37-.18,16.35-2.64,16.35-5.29,0-.13,0-.79-.19-.93-1.19-.89-5.51-.64-8.3.16a5,5,0,0,1-3.91-9.12L348,370.42a5.65,5.65,0,0,0,2.12-7.63c-5-8.78-15-20.79-33.88-28.06a5,5,0,0,1,3.59-9.34c21.67,8.34,33.16,22.25,39,32.45A15.67,15.67,0,0,1,353,379.05l-50.5,29.51,0,0a10.59,10.59,0,0,1,4.18,8.92c0,14.35-23.51,15.23-26.19,15.29Z"></path><path fill="#5fe048" d="M397.24,378.92l-2.95,25.29h-48s-10.28-9.43-16.71-3-8.57,26.58,14.57,26.58h67s21.29-.43,21.29-10.29-14.87-5.57-14.87-5.57l7.15-33Z"></path><path fill="#5fe048" d="M506.63,378.92l-2.95,25.29h-48s-10.29-9.43-16.71-3-8.58,26.58,14.57,26.58h67s21.29-.43,21.29-10.29S527,411.93,527,411.93l7.16-33Z"></path><path fill="#060e38" d="M411.15,432.79h-67c-15.09,0-20.52-7.65-22.4-12.21-3.41-8.24-.5-18.11,4.29-22.9,7-7,16.73-2.61,22.07,1.53h41.74l2.43-20.86a5,5,0,0,1,9.94,1.15l-2.95,25.29a5,5,0,0,1-5,4.42h-48a5,5,0,0,1-3.37-1.31c-.06,0-7-6-9.81-3.15-2.09,2.09-3.92,7.68-2.13,12,2.07,5,8.31,6,13.17,6h66.95c7.37-.18,16.35-2.64,16.35-5.29,0-.13,0-.79-.19-.93-1.19-.89-5.51-.64-8.3.16a5,5,0,0,1-6.27-5.86l7.16-33a5,5,0,0,1,9.77,2.12L424,406h.15a15.1,15.1,0,0,1,9.14,2.59,10.59,10.59,0,0,1,4.18,8.92c0,14.35-23.51,15.23-26.19,15.29Z"></path><path fill="#060e38" d="M520.54,432.79h-67c-15.1,0-20.52-7.65-22.41-12.21-3.41-8.24-.49-18.11,4.3-22.9,7-7,16.73-2.61,22.07,1.53h41.74l2.43-20.86a5,5,0,1,1,9.93,1.15l-2.94,25.29a5,5,0,0,1-5,4.42h-48a5,5,0,0,1-3.38-1.31c-.05,0-7-6-9.8-3.15-2.1,2.09-3.92,7.68-2.13,12,2.07,5,8.3,6,13.17,6h67c7.37-.18,16.35-2.64,16.35-5.29,0-.13,0-.79-.19-.93-1.18-.89-5.44-.64-8.31.17a5,5,0,0,1-6.26-5.87l7.15-33A5,5,0,0,1,539,380l-5.64,26h.15a15.12,15.12,0,0,1,9.14,2.59,10.62,10.62,0,0,1,4.18,8.92c0,14.35-23.51,15.23-26.19,15.29Z"></path><circle cx="155.79" cy="250.14" r="16.21" fill="#060e38"></circle><circle cx="148.97" cy="245.46" r="4.68" fill="#fff"></circle><path fill="#266f18" d="M449.61 378.92s23.12-34.71 18-83.58 35.14-48 30.86-97.73.32-53.73.32-53.73 80 20.47 120.19 65.35-54.5 47-67.36 98.27-42.78 46.14-48.39 71.42zM604.46 373.64s12.29-40.58 47.44-43.58 43.82-12.38 43.82-12.38 39 91.61 20.51 150.84-28.82-19.83-61.58-21.06C654.65 447.46 651.33 407.36 604.46 373.64z"></path><polygon fill="#266f18" points="626.91 559.82 654.39 595.22 642.94 607.02 617.78 573.09 626.91 559.82"></polygon><polygon fill="#266f18" points="558.36 618.96 558.36 654.69 546.84 657.3 546.84 623.01 558.36 618.96"></polygon><polygon fill="#266f18" points="444.67 615.95 424.39 638.13 412.87 628.23 433.85 609.96 444.67 615.95"></polygon><polygon fill="#266f18" points="394.42 497.43 414.75 512.54 428.77 500.57 407.71 483.31 394.42 497.43"></polygon><polygon fill="#266f18" points="510.01 567.15 536.19 574.72 541.83 554.16 516.93 548.95 510.01 567.15"></polygon><path fill="#060e38" d="M506.21,666.32a185.05,185.05,0,0,1-47.08-5.88c-48.51-12.78-84.46-59-85.48-110-.5-25.08,8-48,23.87-64.54s38.62-26,64-26.76c17.71-.51,33.87,3.8,46.72,12.46,21.18,14.27,37.49,45,38.78,73,1,20.76-5.9,37.76-19.84,49.16-7.91,6.47-18.42,10.82-31.25,13-23,3.8-53.25-.29-69.24-23.2-13-18.66-12-45.16,2.31-61.65,15-17.28,43.42-20.3,60.74-6.45,8,6.38,12.31,15.2,11.57,23.59A19.78,19.78,0,0,1,493,553.1a16,16,0,0,1-13.27,2.77c-4.79-1.21-8.16-4.38-11.14-7.18-2.09-2-4.05-3.81-6.13-4.62-3.92-1.53-9.29,1-11.26,5.41s-1,10.45,2.51,15c4.1,5.36,10.53,8.08,15.2,9.42,14.12,4.05,29.38,0,37.13-9.85,10.05-12.77,6.4-31.85-2.41-44.08-15.26-21.22-46.54-28.67-69.72-16.62S398.88,545.28,407.47,570c9.17,26.36,32,39.42,49.54,45.74,21.47,7.73,47.56,10,71.59,6.33,42.32-6.53,80-35.28,100.82-76.89,25.17-50.33,28.34-95.21,9.18-129.79a99.46,99.46,0,0,0-34.41-36.13l-9.71,4.28a5,5,0,0,1-2,.42H343.31a5,5,0,0,1,0-10h248.1l11-4.86a5,5,0,0,1,4.27.11c1,.51,24.77,12.74,40.62,41.33,9.3,16.78,13.92,35.71,13.72,56.25-.25,25.36-7.88,53.24-22.69,82.86-22.26,44.51-62.72,75.28-108.25,82.31-25.62,4-53.51,1.47-76.5-6.81C425.53,615,406.31,597.06,398,573.25c-10.15-29.19,3.9-64.52,31.31-78.77s64.41-5.44,82.46,19.65c11,15.27,15.26,39.45,2.15,56.11-10.19,13-29.83,18.41-47.75,13.27-8.77-2.52-15.81-7-20.38-12.94-5.76-7.51-7.2-17.4-3.69-25.2,4.15-9.21,15.15-14.07,24-10.62,3.88,1.51,6.79,4.25,9.35,6.66,2.39,2.24,4.46,4.19,6.73,4.76a6.34,6.34,0,0,0,5-1.22,9.91,9.91,0,0,0,4.09-6.85c.52-5.94-3.72-11.59-7.86-14.9-13.09-10.47-35.47-8-47,5.21-11.23,12.91-12,34.59-1.66,49.35,13.34,19.1,39.44,22.37,59.42,19.06,11.08-1.83,20-5.47,26.55-10.82,14.4-11.78,16.75-28.77,16.18-41-1.16-25.09-15.62-52.48-34.38-65.12-10.95-7.38-25.46-11.21-40.85-10.77-46.93,1.33-79.06,34.69-78.13,81.11.93,46.58,33.74,88.85,78,100.51,26.05,6.86,56.64,7.3,86.14,1.24,69.78-14.33,126-68.49,154.24-148.59,29-82.22,6.94-181.81-57.52-259.9-48.18-58.37-112.7-94.54-177-99.21-63.36-4.61-108,18.94-134.24,39.5-28.44,22.28-42,45.72-42.12,46a5,5,0,1,1-8.69-5c.58-1,14.67-25.41,44.65-48.88,27.65-21.65,74.59-46.45,141.13-41.61,67,4.88,134.09,42.35,184,102.82,31.09,37.67,53.39,81.72,64.51,127.41,12,49.24,10.15,98.41-5.28,142.19-29.43,83.49-88.35,140-161.66,155.06A217.28,217.28,0,0,1,506.21,666.32Z"></path></g></svg>