<svg xmlns="http://www.w3.org/2000/svg" viewBox="0 0 173.33 161.05" id="cute-brown-hanging-dog"><g><g><path fill="#fff" d="M141.59,161.05a20.85,20.85,0,0,1-2.77-.18l-.7-.09-.84-.14c-.27,0-.61-.13-.95-.22s-.75-.17-1.09-.27c-.66-.19-1.37-.43-2.08-.7l-.47-.19a22.88,22.88,0,0,1-2.29-1.1c-.25-.13-.46-.25-.67-.38s-.7-.4-1-.62-.5-.34-.76-.53-.75-.55-1.11-.84-.71-.55-1-.81c-.46-.41-.89-.82-1.31-1.24s-.6-.58-.88-.89c-.61-.66-1.21-1.38-1.79-2.14-.24-.32-.48-.67-.71-1l-.15-.22c-.27-.39-.53-.77-.78-1.18s-.46-.77-.67-1.17c-.31-.55-.54-1-.77-1.44s-.42-.88-.62-1.34-.38-.9-.57-1.38-.34-.9-.5-1.37a.14.14,0,0,0,0-.06H58.14a29.72,29.72,0,0,1-11.65,15.63,24.06,24.06,0,0,1-8.68,3.5,22.91,22.91,0,0,1-4.22.39,23.33,23.33,0,0,1-5.38-.63,24.6,24.6,0,0,1-10.67-5.67C11.89,149.7,8.17,142,7.35,133.64A36.14,36.14,0,0,1,7.17,130c0-13.51,7-24.75,17-29.13-5.53-7.28-9.26-17-5.92-29.69.26-1,.53-2,.8-2.93a19.28,19.28,0,0,1-9.77-3A20.84,20.84,0,0,1,.4,50.93C-1.33,40.27,2.62,28.16,11,18.53a43.37,43.37,0,0,1,9.35-8.06,46.62,46.62,0,0,1,24.93-7.3A44,44,0,0,1,57.92,5c1.41.42,2.86.87,4.31,1.38A51.78,51.78,0,0,1,86.67,0,51.59,51.59,0,0,1,111.1,6.39c1.46-.51,2.9-1,4.31-1.38a44,44,0,0,1,12.66-1.84A46.68,46.68,0,0,1,153,10.47a43.85,43.85,0,0,1,9.35,8.06c8.35,9.63,12.31,21.74,10.57,32.4a20.84,20.84,0,0,1-8.86,14.23,19.24,19.24,0,0,1-9.77,3c.28,1,.54,2,.8,2.93,3.26,12.41-.2,21.91-5.49,29.12C160.39,104.17,168,115.82,168,130a35.52,35.52,0,0,1-.2,3.72h0c0,.3-.07.59-.12.89-.07.59-.15,1.13-.24,1.67-.07.38-.15.78-.23,1.19-.12.57-.24,1.11-.38,1.64s-.22.84-.35,1.26-.31,1-.48,1.51-.29.81-.45,1.22-.4,1-.61,1.44-.35.8-.55,1.19-.47.91-.71,1.35-.46.83-.67,1.17-.51.8-.78,1.19l-.14.21c-.22.33-.44.65-.67.95s-.59.76-.9,1.13l-.09.11c-.31.38-.57.68-.83,1s-.81.85-1.24,1.25c-.17.17-.33.34-.5.49l-.66.6-.08.06c-.57.49-1.17,1-1.77,1.38-.34.25-.7.47-1.06.69s-.95.61-1.41.86-.77.41-1.16.59c-.57.27-1.05.49-1.54.69s-.82.3-1.23.43l-3.72-11,3.56,11-1.08.34-.68.19c-.59.14-1.09.23-1.59.31-.27,0-.62.11-1,.15A21.88,21.88,0,0,1,141.59,161.05Z"></path><path fill="#fff" d="M146.75,20.21a34.33,34.33,0,0,0-28-4.11,47.71,47.71,0,0,0-8.57,3.26c-7.07-4.85-15-7.78-23.49-7.78s-16.42,2.93-23.5,7.79A46.75,46.75,0,0,0,54.6,16.1a34.34,34.34,0,0,0-28,4.11,31.94,31.94,0,0,0-6.86,5.91c-5.26,6.06-9.22,14.78-7.89,23a9.31,9.31,0,0,0,3.75,6.39,8.72,8.72,0,0,0,7.61.59,17,17,0,0,0,6.38-4.56,32.44,32.44,0,0,0,6.19-9.57c1.33-3.18,2.19-6.33,4.59-9s6.25-3.5,9.66-3c.46.06.92.15,1.38.25C50.19,31.54,49,33,47.93,34.54l0,0C39,46.18,33.13,60,29.43,74.09c-3.74,14.25,5.14,22.55,15.71,30.73h0c1.62,1.24,3.33,2.48,5.11,3.69a59.19,59.19,0,0,0-6,7.82c-2.69-3.63-6.45-5.89-10.61-5.89-8.2,0-14.84,8.73-14.84,19.52,0,.86,0,1.71.12,2.54a21,21,0,0,0,6.39,13.61,12.85,12.85,0,0,0,5.63,3,11.6,11.6,0,0,0,2.7.33,10.71,10.71,0,0,0,2.11-.21,12.4,12.4,0,0,0,4.47-1.81c4-2.61,7-7.51,7.93-13.4a26.09,26.09,0,0,0,.32-4.1h78.34a26.43,26.43,0,0,0,.33,4.12v0c0,.23.1.44.14.67.08.41.16.83.26,1.23s.16.6.25.9.2.68.31,1,.22.6.33.9.25.62.38.92.26.58.4.86.29.57.45.85.29.54.45.8.36.55.54.81.32.48.49.7a15.19,15.19,0,0,0,1.08,1.3c.16.17.33.33.5.49s.49.5.75.72.39.31.58.47.51.39.78.58l.24.18c.19.12.38.22.58.33l.33.2c.39.21.78.4,1.18.57l.27.1a10.34,10.34,0,0,0,1.07.36c.19.06.38.1.57.14l.47.11.34,0,.43.06a10.07,10.07,0,0,0,1.34.1,11.67,11.67,0,0,0,1.46-.1l.41-.08a8,8,0,0,0,.83-.15l.15,0c.28-.07.55-.17.82-.26l.65-.22c.27-.11.54-.24.8-.37s.41-.19.61-.3.52-.32.78-.48.38-.23.56-.36a12.8,12.8,0,0,0,1.24-1l0,0c.13-.11.24-.24.36-.36a9.94,9.94,0,0,0,.8-.79c.17-.19.33-.39.49-.58s.41-.49.61-.75.31-.44.46-.67.35-.52.52-.79.28-.49.42-.74.31-.56.46-.86l.36-.78c.13-.31.27-.62.39-.93s.2-.54.3-.82.22-.67.32-1l.24-.83c.09-.36.17-.73.25-1.1s.11-.55.16-.83.12-.81.17-1.22c0-.18.06-.36.08-.55l0,0a24.34,24.34,0,0,0,.14-2.58c0-10.78-6.64-19.52-14.84-19.52-4.67,0-8.83,2.85-11.55,7.3a60.14,60.14,0,0,0-6.93-9.23c1.77-1.2,3.47-2.44,5.08-3.68h0c10.58-8.18,19.46-16.48,15.72-30.73-3.71-14.09-9.58-27.9-18.47-39.52h0v0h0l0,0c-1.09-1.52-2.25-3-3.45-4.4.46-.09.92-.18,1.38-.24,3.41-.46,7.34.44,9.67,3s3.25,5.82,4.58,9a32.44,32.44,0,0,0,6.19,9.57,17,17,0,0,0,6.38,4.56,8.72,8.72,0,0,0,7.61-.59,9.31,9.31,0,0,0,3.75-6.39c1.33-8.17-2.63-16.89-7.89-22.95A31.46,31.46,0,0,0,146.75,20.21Z"></path><path fill="#754423" d="M26.58 20.21a32.22 32.22 0 00-6.86 5.91c-5.26 6.06-9.22 14.78-7.89 23a9.31 9.31 0 003.75 6.39 8.72 8.72 0 007.61.59 17 17 0 006.38-4.56 32.44 32.44 0 006.19-9.57c1.33-3.18 2.19-6.33 4.59-9s6.25-3.5 9.66-3c4.86.66 9.46 3.52 14.46 2.31A6.26 6.26 0 0069 28.61c.79-2.14-.14-4.61-1.71-6.27-3.09-3.24-8.5-5-12.68-6.24A34.34 34.34 0 0026.58 20.21zM146.75 20.21a31.74 31.74 0 016.86 5.91c5.26 6.06 9.22 14.78 7.89 23a9.31 9.31 0 01-3.75 6.39 8.72 8.72 0 01-7.61.59 17 17 0 01-6.38-4.56 32.44 32.44 0 01-6.19-9.57c-1.33-3.18-2.19-6.33-4.58-9s-6.26-3.5-9.67-3c-4.86.66-9.46 3.52-14.45 2.31a6.22 6.22 0 01-4.52-3.58c-.8-2.14.13-4.61 1.7-6.27 3.09-3.24 8.5-5 12.68-6.24A34.33 34.33 0 01146.75 20.21z"></path><path fill="#7f4921" d="M135.84,130H37.52c7.88-22.39,26.92-38.18,49.16-38.18S128,107.57,135.84,130Z"></path><path fill="#e89256" d="M117.07,130H56.29c4.37-20.52,16.33-35.25,30.39-35.25S112.7,109.44,117.07,130Z"></path><path fill="#995c2e" d="M48.42,130a26.09,26.09,0,0,1-.32,4.1c-1,5.89-3.93,10.79-7.93,13.4a12.4,12.4,0,0,1-4.47,1.81,10.71,10.71,0,0,1-2.11.21,11.6,11.6,0,0,1-2.7-.33,12.85,12.85,0,0,1-5.63-3,21,21,0,0,1-6.39-13.61c-.08-.83-.12-1.68-.12-2.54,0-10.79,6.64-19.52,14.84-19.52S48.42,119.17,48.42,130Z"></path><ellipse cx="141.59" cy="129.95" fill="#995c2e" rx="14.84" ry="19.52"></ellipse><path fill="#754423" d="M48.1 134.06c-1 5.89-3.93 10.79-7.93 13.4a12.4 12.4 0 01-4.47 1.81 10.71 10.71 0 01-2.11.21 11.6 11.6 0 01-2.7-.33 12.85 12.85 0 01-5.63-3 21 21 0 01-6.39-13.61 17.73 17.73 0 0011 8.44A17.81 17.81 0 0048.1 134.06zM127.08 134.06c1 5.89 3.93 10.79 7.93 13.4a12.4 12.4 0 004.47 1.81 10.71 10.71 0 002.11.21 11.6 11.6 0 002.7-.33 12.85 12.85 0 005.63-3 21 21 0 006.39-13.61 17.22 17.22 0 01-29.23 1.56z"></path><path fill="#995c2e" d="M143.91,74.09c-3.71-14.09-9.58-27.9-18.47-39.52h0v0h0l0,0C115.77,21.18,102,11.58,86.67,11.58s-29.12,9.61-38.74,23l0,0C39,46.18,33.13,60,29.43,74.09c-3.74,14.25,5.14,22.55,15.71,30.73s25.27,16.3,41.53,16.31h.12c16.21,0,30.73-8.05,41.4-16.3S147.65,88.34,143.91,74.09Z"></path><ellipse cx="105.06" cy="48.82" fill="#ffe6d4" rx="14.86" ry="14.02"></ellipse><ellipse cx="105.06" cy="48.82" fill="#424242" rx="9.35" ry="14.02"></ellipse><ellipse cx="110.23" cy="48.82" fill="#ffe6d4" rx="5.17" ry="2.81"></ellipse><ellipse cx="68.28" cy="48.82" fill="#ffe6d4" rx="14.86" ry="14.02"></ellipse><ellipse cx="68.45" cy="48.82" fill="#424242" rx="9.35" ry="14.02"></ellipse><ellipse cx="73.63" cy="48.82" fill="#ffe6d4" rx="5.17" ry="2.81"></ellipse><path fill="#e89256" d="M128.19,104.82c-10.69,8.27-25.26,16.3-41.51,16.31h0c-16.26,0-30.83-8-41.53-16.31.27-.73.55-1.45.85-2.16,5.84-14.06,17.21-24.6,30.94-28a40.13,40.13,0,0,1,19.48,0c13.81,3.46,25.24,14.12,31.05,28.31C127.72,103.56,128,104.19,128.19,104.82Z"></path><path fill="#424242" d="M99.55,71.32c0,3.38-5.77,8.23-12.88,8.23S73.79,74.7,73.79,71.32s5.76-4,12.88-4S99.55,68,99.55,71.32Z"></path></g></g></svg>