<svg xmlns="http://www.w3.org/2000/svg" viewBox="0 0 271.03 393.32" id="donkey"><g><g><path fill="#fff" d="M165.15,393.32l1.15-14c.68-8.27,1.22-16.46,1.6-24.36.28-5.75.48-11.48.61-17.15q-3,.3-6.06.5c.57,9.36.76,18.46.54,26.82-.15,5.95-.51,11.56-1.06,16.65l-1.25,11.56H84l1.14-14c.65-8,1.18-15.87,1.55-23.5-13.09,9-28.69,16.35-46.44,22L28.14,381.6l-4.06-12.06c-2.1-6.27-3.95-12.7-5.47-19.1a193.43,193.43,0,0,1-5.07-33.29c-.48-8.26-.53-20.73,4.56-33.89a57.49,57.49,0,0,1,27.51-30.47l1.46-57.4c-1.14-.26-2.27-.54-3.36-.87-16.55-4.86-29.47-15.63-38.4-32-5.52-10.11-6.83-22-3.49-31.89A32.51,32.51,0,0,1,20,111.06a44.61,44.61,0,0,1,12.49-3.42l5.34-9.23a23.74,23.74,0,0,1,14.79-11,29.78,29.78,0,0,1,3.18-.63l.26-.18c-2.11-14.05-2.09-27.48.09-39.28C60.08,25.72,72.6,9.91,90.48,4l12.15-4,4.24,12.34.11.34A216.16,216.16,0,0,1,116.33,77,215.62,215.62,0,0,1,159,28l.27-.24,10.31-7.83,8,9.71c11.84,14.63,13.81,34.71,5.41,55.07-5.3,12.91-14.44,26.32-26.09,38.42l.05.22c.4,1.48.76,3,1.07,4.58l19.12,81.45c16.05,2.62,29.73,7.8,40.51,15.24a23.38,23.38,0,0,1,.84-20.13c3.11-5.8,7.79-9.45,11.55-12.38,3.22-2.52,5.25-4.17,6.29-6.23L243,172.5,255.3,181c7.69,5.34,20.48,21,13.89,41.91a27.29,27.29,0,0,1-3.41,7.06c.15.22.29.44.43.66a31.19,31.19,0,0,1,2.63,5.13l.13.32a31.28,31.28,0,0,1,1.49,17.17,33.8,33.8,0,0,1-3.4,9.65,37.44,37.44,0,0,1-5.5,7.85,38.48,38.48,0,0,1-7.15,6.1l-.36.23-1.72,1.05-1.87,1-.19.09c-1,.48-2.29,1.09-3.77,1.64-1,.37-1.95.71-3,1a54.54,54.54,0,0,1-4.82,15.37,351.74,351.74,0,0,1,5.43,67.49c-.15,6.12-.51,11.83-1.07,17l-1.25,11.56Z"></path><path fill="#fff" d="M256.81,240.6a19.09,19.09,0,0,0-1.51-3,39.14,39.14,0,0,0-6.81-7.53c-.62-.58-1.15-1.12-1.63-1.63a14.12,14.12,0,0,0,10-9.44c5.47-17.36-8.93-27.37-8.93-27.37-4.5,9-14.11,11.68-18,18.93-2.6,4.84-.63,10.49,3.37,14.21a15.07,15.07,0,0,0,.36,4,16.68,16.68,0,0,0,1.11,3.16,20.36,20.36,0,0,0,1.47,2.66,37.05,37.05,0,0,0,3.2,4.15c1.05,1.2,2,2.2,2.71,3.14a12.47,12.47,0,0,1,1.63,2.47,4.17,4.17,0,0,1,.34.94,5.16,5.16,0,0,1,.08.78,5.29,5.29,0,0,1-.29,1.71,9.18,9.18,0,0,1-2.62,3.76,10.49,10.49,0,0,1-4.48,2.22,28.07,28.07,0,0,1-9.82.42c-8.38-17.21-28.91-30.08-60.39-33.13l-21.22-90.4c-.27-1.39-.59-2.76-1-4.11l-.2-.84h0a54.42,54.42,0,0,0-2.2-6.08C155,107.46,165.43,93.32,171,79.75c7-17,4.63-31.93-3.51-42l-.08.06c-20,17.11-36.46,37.53-46.64,57.6A52.62,52.62,0,0,0,108.41,90a49.47,49.47,0,0,0-5.67-1.32c2.06-22.08-.72-47.56-8.16-72.27l0-.11C82.26,20.37,72.18,31.59,68.87,49.72c-2.37,12.82-1.76,28.1,1.51,43.5a53.09,53.09,0,0,0-10,6.33A14.69,14.69,0,0,0,56,100,11,11,0,0,0,49,104.91l4.34,1.5a52.37,52.37,0,0,0-8.55,13.91c-7.13-.58-13.87,0-19.56,2.57-14.17,6.32-14.76,22.09-8.57,33.43,4.62,8.46,13.5,20.72,30.69,25.77a49.53,49.53,0,0,0,13,1.84l-.74,29h0L58.36,261.3c-.71.26-1.42.51-2.11.79-12.54,5.23-21.55,14.17-26.07,25.84-4.19,10.85-4.11,21.43-3.7,28.44a180.21,180.21,0,0,0,4.73,31.07c1.49,6.22,3.23,12.25,5.16,18,17.52-5.54,33-12.89,45.95-22.36A73.09,73.09,0,0,1,78,333.16a71.68,71.68,0,0,1-4-19.62c-.24-4.11,1.49-6.58,4.19-7.93a94.86,94.86,0,0,0,22.23,11.45c.17,12.82-.12,25.82-.74,38.47-.41,8.5-1,16.83-1.62,24.83h51c.52-4.82.85-10.07,1-15.58a320.19,320.19,0,0,0-1.61-39.16c1.1,0,2.2,0,3.3,0a137,137,0,0,0,29.89-3.07c0,11-.25,22.14-.78,33-.41,8.49-1,16.8-1.62,24.79h51c.53-4.91.86-10.27,1-15.91a337.94,337.94,0,0,0-6.06-69.27A42.66,42.66,0,0,0,231.27,273c0-.65,0-1.29-.06-1.93h0a38.39,38.39,0,0,0,10.7-2.31,27.52,27.52,0,0,0,2.68-1.17l1.32-.69,1.36-.84A25.35,25.35,0,0,0,252,262a24.15,24.15,0,0,0,3.55-5.07,21.5,21.5,0,0,0,2.16-6.06,19.09,19.09,0,0,0,0-6.87A18.2,18.2,0,0,0,256.81,240.6Z"></path><path fill="#9a9da5" d="M144.16,155.54a52.77,52.77,0,0,1-65.52,35.75h0a52.78,52.78,0,1,1,65.53-35.75Z"></path><path fill="#9a9da5" d="M75.73 112.16c-1.55-4.3-2.87-8.68-4-13-4.45-17.37-5.56-34.95-2.88-49.42 3.31-18.13 13.39-29.35 25.67-33.41l0 .11c9.55 31.73 11.46 64.76 5.26 90.16C97.11 117.69 84.56 120.54 75.73 112.16zM231.27 273c0 15.34-7.74 29.16-22.65 38.78-13.35 8.62-32.45 13.88-56.89 13.88-49.36 0-89.81-21.47-93.41-48.69a29.2 29.2 0 01-.26-4c0-29.08 41.94-52.66 93.67-52.66S231.27 243.92 231.27 273z"></path><path fill="#9a9da5" d="M117.58,263.41,98.48,307c-7.59-3.31-25.2-6-24.46,6.51a71.68,71.68,0,0,0,4,19.62,73.09,73.09,0,0,0,4.32,9.89c-13,9.47-28.43,16.82-45.95,22.36-1.93-5.72-3.67-11.75-5.16-18a180.21,180.21,0,0,1-4.73-31.07c-.41-7-.49-17.59,3.7-28.44,4.52-11.67,13.53-20.61,26.07-25.84C76.8,253.54,102.44,256.78,117.58,263.41Z"></path><path fill="#232323" d="M74.31 113l-7.1-2.09c-2-.58-3.81-1.13-5.62-1.7S58 108 56 107.33l-7-2.42A11 11 0 0156 100a15.71 15.71 0 0115.52 5A11.06 11.06 0 0174.31 113zM86.57 116.56a11.12 11.12 0 016.72-5.22 15.49 15.49 0 018.46-.09 15.31 15.31 0 017.27 4.32 11.11 11.11 0 013.18 7.91l-7.2-1.75c-2-.49-3.85-1-5.68-1.46s-3.65-1-5.65-1.62zM82.32 343.05c-13 9.47-28.43 16.82-45.95 22.36-1.93-5.72-3.67-11.75-5.16-18 10.11-5.66 29.26-14.82 46.79-14.28A73.09 73.09 0 0082.32 343.05z"></path><path fill="#9a9da5" d="M223.09,253.69c5.24.79,10,1.07,13.69.07a10.49,10.49,0,0,0,4.48-2.22,9.18,9.18,0,0,0,2.62-3.76,5.29,5.29,0,0,0,.29-1.71,5.16,5.16,0,0,0-.08-.78,4.17,4.17,0,0,0-.34-.94,12.47,12.47,0,0,0-1.63-2.47c-.74-.94-1.66-1.94-2.71-3.14a37.05,37.05,0,0,1-3.2-4.15,20.36,20.36,0,0,1-1.47-2.66,16.68,16.68,0,0,1-1.11-3.16,14.48,14.48,0,0,1,.09-7.1,12.53,12.53,0,0,1,1.6-3.59,11.07,11.07,0,0,1,3-3.06l6.36,8.8c.09,0,.06.08,0,.49a3.27,3.27,0,0,0,.25,1.45,7.46,7.46,0,0,0,.45.85,9.53,9.53,0,0,0,.75,1,25.93,25.93,0,0,0,2.36,2.45,39.14,39.14,0,0,1,6.81,7.53,19.09,19.09,0,0,1,1.51,3,18.2,18.2,0,0,1,1,3.41,19.09,19.09,0,0,1,0,6.87,21.5,21.5,0,0,1-2.16,6.06A24.15,24.15,0,0,1,252,262a25.35,25.35,0,0,1-4.74,4.05l-1.36.84-1.32.69a27.52,27.52,0,0,1-2.68,1.17,38.39,38.39,0,0,1-10.7,2.31,73.45,73.45,0,0,1-9.82.06Z"></path><path fill="#232323" d="M247.9,191.67s14.4,10,8.93,27.37a14.12,14.12,0,0,1-17.69,9.25c-7.44-2.33-12.93-10.82-9.24-17.69C233.79,203.35,243.4,200.64,247.9,191.67Z"></path><path fill="#797e89" d="M208.62,311.78c-13.35,8.62-32.45,13.88-56.89,13.88-49.36,0-89.81-21.47-93.41-48.69,26.06,15.2,92.08,19.52,120.9,10.66A96.17,96.17,0,0,1,208.62,311.78Z"></path><path fill="#9a9da5" d="M150 364.78c-.14 5.51-.47 10.76-1 15.58h-51c.65-8 1.21-16.33 1.62-24.83 1.29-26.27 1.2-54.12-1.62-78.56h41.55C146.68 301 150.77 336.51 150 364.78zM231.2 364.45c-.14 5.64-.47 11-1 15.91h-51c.65-8 1.21-16.3 1.62-24.79 1.29-26.28 1.2-54.15-1.62-78.6h41.55C227.8 300.89 231.88 336.24 231.2 364.45z"></path><path fill="#232323" d="M150 364.78c-.14 5.51-.47 10.76-1 15.58h-51c.65-8 1.21-16.33 1.62-24.83C112.52 354.62 134.85 354.82 150 364.78zM231.2 364.45c-.14 5.64-.47 11-1 15.91h-51c.65-8 1.21-16.3 1.62-24.79C193.43 354.63 215.82 354.68 231.2 364.45z"></path><path fill="#9a9da5" d="M131.43,128.53c3.63-2.77,7.11-5.74,10.39-8.79,13.14-12.19,23.59-26.38,29.18-40,7-17,4.63-31.93-3.51-42l-.08.06c-25.21,21.52-44.69,48.25-53.23,73C110.46,121.61,119.47,130.8,131.43,128.53Z"></path><path fill="#797e89" d="M141.82,119.74c13.14-12.19,23.59-26.38,29.18-40,7-17,4.63-31.93-3.51-42l-.08.06C158,52.52,151,67.41,147,81.63,143.31,95,142.28,107.49,141.82,119.74Z"></path><polygon fill="#9a9da5" points="168.1 227.58 58.06 273 60.96 158.98 60.54 139.13 144.19 125.7 168.1 227.58"></polygon><path fill="#797e89" d="M59.59,213,61,159l30.1-4.55,18.23,3.11S108,194.41,59.59,213Z"></path><path fill="#ced2d8" d="M64.52,124.24c-13.9-4.08-28.46-6.17-39.27-1.35-14.17,6.32-14.76,22.09-8.57,33.43,4.62,8.46,13.5,20.72,30.69,25.77a55,55,0,0,0,18.51,1.74c22.37-1.29,42.48-11.43,43.41-26.29.66-10.35-8.72-19.83-24.94-26.29C78.27,128.83,71.48,126.28,64.52,124.24Z"></path><ellipse cx="37.76" cy="136.47" fill="#797e89" rx="7.05" ry="10.03" transform="rotate(-32.95 37.774 136.487)"></ellipse><ellipse cx="64.75" cy="144.41" fill="#797e89" rx="10.03" ry="7.05" transform="rotate(-24.28 64.737 144.374)"></ellipse></g></g></svg>