<svg xmlns="http://www.w3.org/2000/svg" viewBox="0 0 150 150" id="fish"><path fill="#f04c42" d="M76.588 76.218s-7.181 14.749 5.185 25.465 8.461-5.606 17.073-5.358c4.824.14 15.8-9.007 6.778-18.072m-59.883-3.89c-9.403-28.458 24.25-29.695 24.25-29.695S62.32 61.989 89.54 74.362"></path><path fill="#fbb100" d="M116.88 78.654c-7.725 5.333-20.056 19.18-54.648 19.18-26.868 0-42.648-5.587-42.648-16.18s16.57-28.645 42.648-22.18c29.562 7.33 54.648 19.18 54.648 19.18z"></path><path fill="#f04c42" d="M21.911 79.972c-2.764 0-5.117-.648-6.046 1.252 2.8.425 3.81 1.792 3.81 1.792s-1.01 1.367-3.81 1.792c.929 1.9 3.282 1.252 6.046 1.252 3.576 0 6.475-2.258 6.475-5.044s-2.899-1.044-6.475-1.044zM71.15 86.88c1.962 5.312-2.936 17.13-4.598 12.629-3.939-10.665-9.74-1.297-11.703-6.61-1.962-5.312-3.812-11.899.689-13.561 4.501-1.662 13.65 2.23 15.612 7.542z"></path><circle cx="35.595" cy="72.118" r="5.691" fill="#fff"></circle><circle cx="35.075" cy="72.985" r="2.743" fill="#231f20"></circle><circle cx="33.34" cy="71.976" r="1.009" fill="#fff"></circle><path fill="#f04c42" d="M121.227 78.654c0 11.347 20.681 19.18 9.688 19.18s-19.904-9.2-19.904-20.547 8.911-20.546 19.904-20.546-9.688 10.566-9.688 21.913z"></path></svg>