<svg xmlns="http://www.w3.org/2000/svg" width="512" height="512" id="guinea-pig"><path d="M325.938 404.648C325.129 404.364 324.239 404.404 323.379 404.318L315.877 403.914C289.254 402.313 287.753 386.136 277.798 366.904C275.449 366.332 272.664 366.557 270.243 366.549L199.313 366.448C197.455 366.394 195.639 366.063 193.789 365.976L172.25 364.441L128.639 357.145C133.92 360.853 139.648 363.81 145.602 366.28L158.426 371.158C162.175 372.629 166.034 374.29 169.039 377.046C178.381 385.612 174.923 403.762 161.386 403.9C156.083 403.954 150.898 403.188 145.627 402.765C122.73 400.924 119.589 402.2 102.641 384.109L82.3168 361.458L63.1394 343.517C41.6711 322.464 26.4943 294.275 26.1894 263.623C13.4827 262.935 2.06506 252.592 1.98615 239.441C1.96631 236.135 1.6624 232.401 2.3268 229.164C4.88983 216.675 17.8723 207.93 30.0836 207.482C34.3163 207.327 32.6725 207.149 34.3048 202.062C52.8612 144.229 109.156 109.744 167.714 105.204C173.174 104.781 178.754 104.957 184.23 104.94L231.732 104.954C260.852 105.02 290.46 113.112 316.242 126.36L339.535 139.82C345.025 143.087 350.995 147.162 357.143 148.925C358.391 147.661 359.352 146.053 360.468 144.663C375.581 125.833 411.964 125.464 424.471 145.709C426.76 149.414 425.636 157.255 424.631 161.291C454.681 172.548 474.342 195.191 491.77 221.035C496.534 228.1 501.167 235.241 505.099 242.811C510.201 252.637 510.012 254.59 510.006 265.097C510.003 271.791 509.686 275.701 507.249 282.035C497.921 306.276 479.067 317.137 453.266 318.969L430.877 320.323C421.468 321.364 420.829 324.673 414.76 330.904C411.603 334.144 408.145 337.13 405.168 340.538C406.112 341.23 408.209 341.497 409.369 341.774L419.728 344.182C423.703 345.116 428.002 346.005 431.262 348.615C440.137 355.723 440.345 374.536 428.054 376.472C423.815 377.139 419.255 376.101 415 376.046L393.938 376.001C379.613 375.974 369.153 375.859 357.219 367.073C355.935 366.129 355.812 366.629 354.286 367.027L349.184 368.146C343.472 369.189 337.661 370.048 331.859 370.385C341.073 372.811 355.976 376.649 359.427 386.769C361.777 393.661 359.551 402.302 351.934 404.665L351.5 404.794C347.362 406.052 341.796 404.925 337.466 404.791L325.938 404.648ZM201.844 120.422L182.964 120.441C115.732 120.569 55.9903 158.329 43.5034 226.75C40.8987 241.022 40.0198 259.371 42.6252 273.821L44.8723 283.957C50.1233 303.801 61.0794 320.121 75.8314 334.151C81.2465 339.302 87.7847 343.63 92.7114 349.222C99.9469 357.434 106.365 366.058 114.159 373.814C125.517 385.117 129.826 385.919 146.024 387.264L156.404 388.094C150.993 385.231 145.034 383.432 139.416 381.001C124.726 374.644 99.6972 360.147 110.123 340.64C112.625 335.959 116.529 332.218 118.968 327.447C121.058 323.359 122.124 317.16 124.847 313.67C128.286 309.263 138.854 307.724 143.754 309.17L144.215 309.3C148.621 310.555 152.782 312.879 157.212 314.257C169.312 318.021 186.012 321.379 198.918 322.07L207.509 322.196C209.446 322.212 211.639 321.966 213.375 322.929L213.68 323.088C215.453 324.027 216.809 325.479 217.423 327.405C220.952 338.5 208.627 338.326 201.456 337.958C180.019 336.858 157.683 331.749 137.661 324.256L128.665 341.154C133.029 341.626 137.415 342.646 141.708 343.549L157.775 346.662L190.375 349.963C198.866 350.636 205.411 350.73 214.021 350.746L269.433 350.773C267.681 348.191 264.207 334.801 263.719 331.844C261.539 318.62 273.699 315.844 277.925 323.3C279.426 325.949 279.623 329.549 280.169 332.498C282.81 346.755 288.013 350.282 293.431 361.59C303.226 382.029 296.901 387.281 323.924 388.666L339.518 389.223C336.856 388.647 334.229 387.201 331.626 386.288C325.498 384.139 314.685 381.462 312.597 374.423C306.846 355.042 332.004 355.736 343.826 353.138C370.929 347.183 381.326 338.854 401.513 322.667C359.833 312.55 329.64 278.705 323.59 236.611C323.133 233.429 322.4 229.624 323.232 226.461C324.801 220.498 334.225 217.576 337.484 223.678C338.587 225.743 338.439 229.163 338.611 231.485C340.211 253.04 352.025 276.019 368.842 289.494C380.091 298.816 395.589 307.145 410.659 307.224C418.734 307.267 426.704 304.997 434.688 304.038C448.055 302.432 461.315 304.22 473.997 298.538C478.027 296.732 484.906 292.665 486.223 287.979C482.031 285.936 476.241 283.083 474.649 278.315C473.372 274.49 475.502 269.387 479.609 268.328C486.23 266.622 492.625 274.323 494.274 271.746C495.566 269.728 495.453 260.217 494.841 257.943C493.668 253.584 491.37 249.394 489.111 245.517L478.446 229.043C463.479 207.604 451.018 192.418 427.875 179.362L422.268 176.404C420.955 192.371 402.504 210.526 385.875 208.717C379.167 207.987 378.807 201.778 378.806 196.503L378.841 174.656C378.858 169.63 378.143 161.386 383.053 158.25C386.806 155.853 391.262 157.964 393.189 161.625C395.471 165.959 394.51 172.56 394.467 177.374L394.663 190.684C395.244 189.967 396.137 189.699 396.931 189.292C409.007 183.099 408.708 162.533 403.128 152.965C398.131 144.398 387.254 144.236 379.486 148.989C373.981 152.356 369.939 158.504 365.995 163.494C340.494 195.763 324.223 203.103 283.826 186.248L243.75 167.743C221.711 158.276 198.747 152.613 174.754 152.578L163.214 152.717C130.63 154.664 96.1175 165.528 78.4071 194.772C76.7516 197.506 75.0707 200.274 73.8513 203.235C72.3139 206.97 72.0956 211.629 69.6474 214.899C64.6804 221.531 52.3591 219.911 56.2731 205.927C57.8792 200.189 60.6141 194.804 63.5548 189.647C84.022 153.749 122.749 139.327 162.168 137.176L174.316 137.056C202.809 137.117 230.302 144.537 256.187 156.319L283.888 169.387C311.799 182.052 326.142 185.352 347.173 162.279C335.549 156.371 324.788 148.774 313.322 142.552C284.359 126.836 259.102 120.466 226.742 120.42L201.844 120.422ZM26.9955 224.125C18.2928 225.755 13.8366 238.308 20.6595 244.494C22.1821 245.701 23.4726 246.462 25.32 247.114L28.2277 224.375L26.9955 224.125ZM391.571 351.702L375.319 359.109C377.389 359.656 379.627 359.609 381.75 359.761L400.709 360.264L411.25 360.337C412.934 360.356 414.988 360.619 416.631 360.342C408.205 357.528 399.668 355.441 391.571 351.702Z"></path><path d="M363.546 218.997C356.266 220.808 334.133 213.484 338.497 202.625 339.495 200.141 341.225 198.767 343.607 197.747 348.274 197.503 353.478 200.858 357.743 202.566L364.625 205.072C372.19 208.109 370.254 216.637 363.546 218.997zM439.228 248.3C411.878 248.506 409.123 212.57 435.723 208.332 461.407 205.527 466.067 245.89 439.228 248.3zM436.048 224.514C429.797 228.142 433.039 232.37 438.703 232.247 444.335 230.349 441.895 224.196 436.048 224.514z"></path></svg>