<svg xmlns="http://www.w3.org/2000/svg" enable-background="new 0 0 47.5 47.5" viewBox="0 0 47.5 47.5" id="mouse"><defs><clipPath id="a"><path d="M0 38h38V0H0v38Z"></path></clipPath></defs><g clip-path="url(#a)" transform="matrix(1.25 0 0 -1.25 0 47.5)"><path fill="#99aab5" d="M0 0a8.5 8.5 0 0 0-8.5-8.5A8.5 8.5 0 0 0-17 0a8.5 8.5 0 0 0 8.5 8.5A8.5 8.5 0 0 0 0 0" transform="translate(18 27.5)"></path><path fill="#99aab5" d="M0 0a8.5 8.5 0 1 0-17 0A8.5 8.5 0 0 0 0 0" transform="translate(37 27.5)"></path><path fill="#f4abba" d="M0 0a5.844 5.844 0 1 0-11.688 0A5.844 5.844 0 0 0 0 0" transform="translate(14.813 26.969)"></path><path fill="#f4abba" d="M0 0a5.844 5.844 0 1 0-11.688 0A5.844 5.844 0 0 0 0 0" transform="translate(34.875 26.969)"></path><path fill="#99aab5" d="M0 0c0-7.18-8-15-12-15S-24-7.18-24 0s7 9 12 9S0 7.18 0 0" transform="translate(31 19)"></path><path fill="#f4abba" d="M0 0c0-1.604-2.012-3.352-2.905-3.352-.894 0-2.906 1.748-2.906 3.352 0 1.605 1.788 1.956 2.906 1.956C-1.788 1.956 0 1.605 0 0" transform="translate(21.905 7.352)"></path><path fill="#66757f" d="M0 0a.994.994 0 0 0-.514.143C-5.142 2.92-11.792 2.02-11.858 2.01a.991.991 0 0 0-1.13.849.999.999 0 0 0 .847 1.131c.301.042 7.412 1.014 12.657-2.133A1 1 0 0 0 0 0" transform="translate(35.999 4.84)"></path><path fill="#66757f" d="M0 0a.998.998 0 0 0-.801.4c-2.728 3.637-8.308 4.604-8.364 4.614a.999.999 0 0 0-.822 1.15c.09.545.606.92 1.15.822.262-.044 6.433-1.115 9.636-5.386A1 1 0 0 0 0 0" transform="translate(33.001 1.84)"></path><path fill="#66757f" d="M0 0a1 1 0 0 0-.516 1.857C4.729 5.004 11.839 4.032 12.141 3.99a1 1 0 0 0-.283-1.98c-.066.009-6.717.909-11.344-1.867A.994.994 0 0 0 0 0" transform="translate(2.001 4.84)"></path><path fill="#66757f" d="M0 0a1 1 0 0 0-.799 1.6c3.203 4.271 9.375 5.342 9.635 5.386a1 1 0 0 0 .331-1.972C9.11 5.004 3.518 4.022.801.4A1 1 0 0 0 0 0" transform="translate(4.999 1.84)"></path><path fill="#272b2b" d="M0 0s0 2 2 2 2-2 2-2v-2s0-2-2-2-2 2-2 2v2z" transform="translate(13 16)"></path><path fill="#272b2b" d="M0 0s0 2 2 2 2-2 2-2v-2s0-2-2-2-2 2-2 2v2z" transform="translate(21 16)"></path></g></svg>